<svg width="44" height="44" viewBox="0 0 44 44" fill="none" xmlns="http://www.w3.org/2000/svg">
<g id="Button App Bar Slot">
<g id="Custom Coins">
<path id="Union" fill-rule="evenodd" clip-rule="evenodd" d="M27.133 19.9135V13.1624C27.1526 10.9913 23.6065 10 20.0996 10C16.5926 10 13.0465 10.9913 13.0465 13.1723V22.0944C13.0472 22.536 13.1996 22.9635 13.4775 23.3039C12.5335 24.1992 11.6893 25.1965 10.96 26.2779C9.88243 27.9335 9.7159 29.2519 10.4408 30.0748L12.4 32.335C12.7844 32.7724 13.3402 33.0155 13.9184 32.9992C15.4465 32.9992 17.6114 31.7204 19.4237 30.3226C20.609 31.6807 23.7045 32.2062 26.4571 32.2062C29.9347 32.2062 34 31.3734 34 29.0338V23.0858C34.0098 20.9048 30.4441 20.0225 27.133 19.9135ZM13.9184 31.8096C13.668 31.8319 13.4206 31.7412 13.2425 31.5618L12.498 30.6894C14.3102 30.4118 16.7396 28.8356 18.5225 27.2395C18.6596 27.1206 19.7665 26.0697 20.0996 25.7327C20.2465 25.5741 21.2163 24.4737 21.3731 24.2754C21.5298 24.0771 21.8531 23.6112 21.9804 23.4129C21.9804 23.4129 22.5584 22.4216 22.6759 22.1044C22.6759 22.0614 22.721 21.9537 22.7577 21.8662C22.7802 21.8125 22.7995 21.7663 22.8033 21.7475L23.538 22.6199C23.6403 22.7492 23.6956 22.9102 23.6947 23.0759C23.6928 23.2822 23.6564 23.4866 23.5869 23.6806C23.5152 23.9034 23.4234 24.1191 23.3127 24.325C23.2441 24.4638 22.5486 25.5443 22.3331 25.812C22.2743 25.8913 21.52 26.8033 21.1674 27.1503C20.8147 27.4973 19.3747 28.8356 18.9241 29.1925C16.9257 30.8183 14.9861 31.8096 13.9184 31.8096ZM20.0996 11.1896C18.4964 11.1458 16.9 11.415 15.3975 11.9827C14.6628 12.3098 14.222 12.6469 14.222 13.1723C14.222 13.6977 14.8196 14.1736 15.7992 14.5205C17.189 14.9674 18.6415 15.1817 20.0996 15.155C21.5544 15.181 23.0036 14.9667 24.3902 14.5205C25.3698 14.1636 25.9771 13.6184 25.9771 13.1723C25.9771 12.7262 25.5265 12.3098 24.7918 11.9827C23.2926 11.4158 21.6995 11.1466 20.0996 11.1896ZM27.1526 21.113C28.6515 21.126 30.1378 21.3907 31.551 21.8962C32.3543 22.2233 32.8343 22.6397 32.8343 23.0858C32.7885 23.4348 32.576 23.7387 32.2661 23.8987C31.7723 24.2072 31.2334 24.4347 30.6694 24.5728C30.1951 24.6987 29.7144 24.798 29.2294 24.8702C28.3147 25.0056 27.3913 25.0719 26.4669 25.0685C25.7534 25.0709 25.0403 25.0312 24.3314 24.9495L24.4685 24.6719C24.5469 24.4935 24.6155 24.325 24.6743 24.1564C24.7849 23.8642 24.851 23.5567 24.8702 23.2444C24.8844 22.7628 24.7434 22.2896 24.4685 21.8962L23.9494 21.2617C24.5175 21.1923 26.9273 21.1031 27.1526 21.113ZM32.8343 26.0598V24.9396C32.6471 25.0523 32.4542 25.1549 32.2563 25.2469C31.3206 25.6598 30.3307 25.9336 29.3175 26.0598C28.3733 26.1952 27.4206 26.2615 26.4669 26.2581C25.5197 26.2613 24.5736 26.1951 23.6359 26.0598C23.2555 26.5963 22.8399 27.1064 22.3918 27.5865C23.7269 27.9052 25.0953 28.0583 26.4669 28.0425C27.2955 28.0425 28.1233 27.9895 28.9453 27.8839C29.3175 27.8343 30.6792 27.5468 30.9632 27.4576C31.4359 27.2863 31.8945 27.0775 32.3347 26.833C32.617 26.6744 32.8038 26.3851 32.8343 26.0598ZM14.4082 19.6161C14.2944 19.4758 14.229 19.3017 14.222 19.1204V18.02C14.7533 18.3096 15.3069 18.5549 15.8775 18.7536C17.0004 19.0781 18.1585 19.2612 19.3257 19.2988C18.4023 19.6775 17.5221 20.1562 16.7004 20.7264C15.8416 20.6039 15.0411 20.2161 14.4082 19.6161ZM14.3494 22.5108C14.3788 22.481 15.1037 21.8763 15.4563 21.5987C15.021 21.4515 14.6062 21.2483 14.222 20.994V22.0944C14.223 22.2429 14.2673 22.3877 14.3494 22.5108ZM15.7992 17.4946C15.2689 17.3405 14.7888 17.0462 14.4082 16.642C14.2944 16.5017 14.229 16.3277 14.222 16.1464V15.046C14.7533 15.3355 15.3069 15.5809 15.8775 15.7796C17.2677 16.171 18.7057 16.3613 20.1486 16.3446C21.5914 16.3598 23.0291 16.1696 24.4196 15.7796C24.9718 15.5743 25.5087 15.3291 26.0261 15.046V16.1464C26.0149 16.3285 25.9462 16.5023 25.8302 16.642C25.4514 17.0485 24.9706 17.3432 24.4392 17.4946C23.0526 17.9407 21.6033 18.155 20.1486 18.129C18.6741 18.1612 17.2046 17.9468 15.7992 17.4946ZM25.9771 18.02C25.4597 18.3032 24.9228 18.5483 24.3706 18.7536C23.6158 18.9785 22.8418 19.1312 22.0588 19.2096C22.4383 19.4816 22.7695 19.8168 23.0384 20.201C23.8323 20.0645 24.6338 19.9785 25.4384 19.9432C25.5661 19.8495 25.6813 19.7396 25.7812 19.6161C25.8973 19.4763 25.9659 19.3026 25.9771 19.1204V18.02ZM11.6359 27.4973C12.3809 26.2282 13.3049 25.076 14.3788 24.0771C14.6433 23.8293 15.2702 23.2741 15.3584 23.2444C15.8776 22.7884 16.3674 22.3621 16.8571 21.9953C17.3483 21.637 17.8585 21.306 18.3853 21.0039C18.8369 20.7496 19.3087 20.534 19.7959 20.3596C20.1556 20.2155 20.5361 20.1318 20.9225 20.1117C21.1728 20.0894 21.4202 20.1801 21.5984 20.3596C21.7233 20.5565 21.7753 20.7918 21.7453 21.0238C21.6685 21.3202 21.5737 21.6116 21.4612 21.8961C21.2539 22.3048 21.025 22.7019 20.7755 23.0858L20.0016 24.0771C19.8645 24.2357 18.16 25.9805 17.7486 26.3374C15.4857 28.3201 13.1935 29.5493 11.9984 29.5493C11.7509 29.5714 11.5066 29.4805 11.3322 29.3015C11.0482 28.9644 11.1755 28.3102 11.6065 27.4973H11.6359ZM26.4669 29.2321C24.7737 29.263 23.0857 29.0324 21.4612 28.5481C21.1318 28.8667 20.6874 29.2684 20.4716 29.4634C20.3987 29.5293 20.3519 29.5716 20.3445 29.5791C21.0988 30.4019 23.5282 31.0165 26.4669 31.0165C29.9837 31.0165 32.8343 30.1243 32.8343 29.0339V27.9136C31.3649 28.8554 28.7886 29.2321 26.4669 29.2321Z" fill="currentColor"/>
</g>
</g>
</svg>
