<svg width="27" height="26" viewBox="0 0 27 26" fill="none" xmlns="http://www.w3.org/2000/svg">
<g id="Custom Event Icon">
<g id="Union">
<path d="M14.0779 7.13461C13.8516 7.13461 13.6468 7.01606 13.5175 6.83284C13.3127 6.5203 13.4097 6.11076 13.7115 5.91677C14.9401 5.11924 15.6083 4.16006 15.6083 3.20087C15.6083 2.43568 15.1664 1.73515 14.3689 1.22862C14.218 1.13162 14.1102 0.980739 14.0779 0.808302C14.0348 0.635864 14.0779 0.452649 14.1641 0.312543C14.2827 0.118551 14.4982 0 14.7245 0C14.8539 0 14.9724 0.0323321 15.0802 0.107774C16.2549 0.851411 16.9231 1.98303 16.9231 3.1901C16.9231 4.62349 16.0394 5.99221 14.4228 7.03761C14.315 7.10228 14.1857 7.14539 14.0563 7.14539L14.0779 7.13461Z" fill="currentColor"/>
<path fill-rule="evenodd" clip-rule="evenodd" d="M4.31354 24.7771C3.37591 24.7771 2.54605 24.2167 2.17962 23.3545C1.96408 22.8372 1.94252 22.2552 2.11496 21.7271L2.16885 21.5762L8.19339 7.23159C8.19339 7.23159 8.21495 7.19925 8.22572 7.18848C8.26883 7.11304 8.32272 7.04837 8.37661 6.98371C8.58138 6.77894 8.85081 6.68194 9.19569 6.68194C10.5429 6.68194 12.9785 8.3201 15.716 11.0575L15.91 11.2515C18.5504 13.9351 20.9646 17.2222 19.7898 18.3969C19.6605 18.5263 19.5096 18.6125 19.3264 18.6556L5.18651 24.5831C4.9063 24.7017 4.60453 24.7663 4.29199 24.7663L4.31354 24.7771ZM3.40824 22.0828C3.31125 22.3199 3.31125 22.6001 3.40824 22.8372C3.55913 23.2036 3.91478 23.4407 4.31354 23.4407C4.41054 23.4407 4.50753 23.43 4.59375 23.3976L4.69075 23.3653L5.98403 22.8264C5.43439 22.1582 4.91707 21.2314 4.53987 20.186C4.48598 20.0351 4.43209 19.8842 4.38898 19.7333L3.40824 22.072V22.0828ZM5.29428 17.5886C5.34817 18.2137 5.53138 19.0005 5.80082 19.7333C6.24269 20.9619 6.857 21.8349 7.28809 22.2768L9.56212 21.3284C8.81848 20.38 8.07484 18.9574 7.47131 17.2761L7.30965 16.8019C7.01866 15.9397 6.80311 15.1314 6.66301 14.377L5.31584 17.5886H5.29428ZM7.95629 11.2515C7.95629 11.2515 7.93474 11.2946 7.92396 11.3054L7.87007 11.4455C7.71919 12.1137 7.87007 14.5063 8.71071 16.8234C9.40046 18.7202 10.2626 20.1321 10.8123 20.8003L12.8708 19.9381C12.2134 19.0436 11.5775 17.8042 11.0386 16.3492L10.9524 16.1121C10.3058 14.3446 9.9501 12.6957 9.9501 11.4779C9.41123 10.8204 8.96936 10.163 8.65682 9.57027L7.95629 11.2408V11.2515ZM11.5344 13.3747C11.696 14.1291 11.9224 14.9158 12.2026 15.6595C12.8169 17.3407 13.5929 18.6879 14.1317 19.41L17.1925 18.1275C15.9854 17.4701 14.455 16.2738 12.86 14.7218L12.4612 14.3339C12.1379 14.0105 11.8254 13.6872 11.5344 13.3747ZM9.31424 7.986C9.33579 8.43865 10.8877 10.8743 13.3989 13.3855L13.5821 13.5687C15.8992 15.8427 18.2271 17.3839 18.8199 17.4593L18.9169 17.4054C18.9384 17.1791 17.6236 14.9374 15.1448 12.3616L14.7891 11.9952C12.2996 9.50561 9.81 7.92134 9.33579 7.92134V7.81356L9.31424 7.92134V7.986Z" fill="currentColor"/>
<path d="M25.5558 17.136C25.6852 17.33 25.8899 17.4377 26.1163 17.4377C26.2456 17.4377 26.3749 17.4054 26.4827 17.33C26.6228 17.233 26.7306 17.0821 26.7629 16.9096C26.7952 16.7372 26.7629 16.5648 26.6659 16.4139C25.8253 15.1422 24.7044 14.3877 23.6698 14.3877C23.0986 14.3877 22.5921 14.6141 22.1825 15.0559C22.0532 15.1853 21.9993 15.3577 21.9993 15.5301C22.0101 15.7134 22.0855 15.875 22.2148 15.9936C22.3442 16.1121 22.4951 16.1768 22.6675 16.1768C22.8615 16.1768 23.0339 16.1013 23.2171 15.9074C23.3788 15.7672 23.562 15.7026 23.756 15.7026C24.2949 15.7026 24.9523 16.2199 25.5558 17.136Z" fill="currentColor"/>
<path fill-rule="evenodd" clip-rule="evenodd" d="M21.2879 12.6526C20.2102 12.6526 19.3372 11.7796 19.3372 10.7019C19.3372 9.62417 20.2102 8.75121 21.2879 8.75121C22.3656 8.75121 23.2386 9.62417 23.2386 10.7019C23.2386 11.7796 22.3656 12.6526 21.2879 12.6526ZM21.2879 10.0768C20.943 10.0768 20.6628 10.357 20.6628 10.7019C20.6628 11.0468 20.943 11.327 21.2879 11.327C21.6328 11.327 21.913 11.0468 21.913 10.7019C21.913 10.357 21.6328 10.0768 21.2879 10.0768Z" fill="currentColor"/>
<path d="M3.79632 7.6088C3.79632 8.09378 4.19508 8.49255 4.68006 8.49255C5.16504 8.49255 5.5638 8.09378 5.5638 7.6088C5.5638 7.12382 5.16504 6.72506 4.68006 6.72506C4.19508 6.72506 3.79632 7.12382 3.79632 7.6088Z" fill="currentColor"/>
<path d="M22.689 20.5093C22.204 20.5093 21.8052 20.1105 21.8052 19.6255C21.8052 19.1406 22.204 18.7418 22.689 18.7418C23.174 18.7418 23.5727 19.1406 23.5727 19.6255C23.5727 20.1105 23.174 20.5093 22.689 20.5093Z" fill="currentColor"/>
<path d="M25.2325 11.8982C25.2325 12.3832 25.6313 12.7819 26.1163 12.7819C26.6012 12.7819 27 12.3832 27 11.8982C27 11.4132 26.6012 11.0145 26.1163 11.0145C25.6313 11.0145 25.2325 11.4132 25.2325 11.8982Z" fill="currentColor"/>
<path fill-rule="evenodd" clip-rule="evenodd" d="M17.8608 25.5208C16.783 25.5208 15.9101 24.6478 15.9101 23.5701C15.9101 22.4923 16.783 21.6194 17.8608 21.6194C18.9385 21.6194 19.8115 22.4923 19.8115 23.5701C19.8115 24.6478 18.9385 25.5208 17.8608 25.5208ZM17.8608 22.945C17.5159 22.945 17.2357 23.2252 17.2357 23.5701C17.2357 23.915 17.5159 24.1952 17.8608 24.1952C18.2056 24.1952 18.4859 23.915 18.4859 23.5701C18.4859 23.2252 18.2056 22.945 17.8608 22.945Z" fill="currentColor"/>
<path fill-rule="evenodd" clip-rule="evenodd" d="M8.55983 3.15776C8.55983 4.2355 9.43279 5.10846 10.5105 5.10846C11.5883 5.10846 12.4612 4.2355 12.4612 3.15776C12.4612 2.08002 11.5883 1.20706 10.5105 1.20706C9.43279 1.20706 8.55983 2.08002 8.55983 3.15776ZM9.88544 3.15776C9.88544 2.81288 10.1657 2.53267 10.5105 2.53267C10.8554 2.53267 11.1356 2.81288 11.1356 3.15776C11.1356 3.50264 10.8554 3.78285 10.5105 3.78285C10.1657 3.78285 9.88544 3.50264 9.88544 3.15776Z" fill="currentColor"/>
<path d="M23.1525 3.87984C22.6675 3.87984 22.2687 3.48108 22.2687 2.9961C22.2687 2.51111 22.6675 2.11235 23.1525 2.11235C23.6375 2.11235 24.0362 2.51111 24.0362 2.9961C24.0362 3.48108 23.6375 3.87984 23.1525 3.87984Z" fill="currentColor"/>
<path d="M16.686 8.41709C16.686 8.77274 16.9878 9.06373 17.3434 9.06373L17.3219 9.08529C17.6775 9.08529 17.9685 8.80508 17.9685 8.43865C17.9685 8.07222 18.0763 8.03988 18.2056 8.03988C18.2595 8.03988 18.3349 8.05066 18.4212 8.07222L18.435 8.0753C18.6264 8.11785 18.8574 8.16921 19.0678 8.16921C19.348 8.16921 19.5743 8.08299 19.7575 7.89978C20.0593 7.59801 20.1132 7.21003 20.1132 6.95137C20.1348 6.5095 20.1563 6.5095 20.2425 6.5095C20.3288 6.5095 20.4581 6.54183 20.6305 6.58494C20.6844 6.60649 20.7383 6.60649 20.7922 6.60649C21.0939 6.60649 21.3526 6.40172 21.428 6.11074C21.4712 5.9383 21.4388 5.76586 21.3526 5.61498C21.2664 5.46409 21.1263 5.35632 20.9538 5.31321C20.6305 5.23777 20.3611 5.19466 20.124 5.19466C19.9084 5.19466 19.7252 5.22699 19.5528 5.29166C19.0678 5.48565 18.9061 5.89519 18.8523 6.20773C18.8307 6.34784 18.8307 6.49872 18.8307 6.66038V6.80049L18.7337 6.77893C18.572 6.73582 18.4104 6.70349 18.2487 6.68194C18.1841 6.67116 18.1086 6.67116 18.0332 6.67116C17.6667 6.67116 17.365 6.78971 17.1279 7.02681C16.8261 7.3178 16.686 7.78123 16.686 8.41709Z" fill="currentColor"/>
</g>
</g>
</svg>
